<svg width="42" height="26" viewBox="0 0 42 26" fill="none" xmlns="http://www.w3.org/2000/svg">
<path d="M25.3151 0.0280762C28.1416 0.0280762 29.6913 1.56534 29.6913 4.37951V5.43327H0V4.37951C0 1.56534 1.54966 0.0280762 4.37616 0.0280762H25.3151ZM5.34326 17.8554H8.38054C9.11199 17.8554 9.59554 17.3594 9.59554 16.6651V14.3717C9.59554 13.6774 9.11199 13.1816 8.38054 13.1816H5.34326C4.61182 13.1816 4.1158 13.6774 4.1158 14.3717V16.6651C4.1158 17.3594 4.61182 17.8554 5.34326 17.8554ZM4.37616 21.9712C1.54966 21.9712 0 20.4338 0 17.6197V8.48296H29.6913V17.6197C29.6913 20.4216 28.1416 21.9712 25.3151 21.9712H4.37616Z" fill="#5856D6"/>
<path d="M38.4548 6.82806H14.3118C12.7821 6.82806 11.542 8.06813 11.542 9.59783V20.0614C11.542 21.5911 12.7821 22.8311 14.3118 22.8311H38.4548C39.9845 22.8311 41.2246 21.5911 41.2246 20.0614V9.59783C41.2246 8.06813 39.9845 6.82806 38.4548 6.82806Z" fill="#F2F2F7"/>
<path d="M36.8559 4.02881C39.6825 4.02881 41.2322 5.56607 41.2322 8.3802V9.43409H11.5408V8.3802C11.5408 5.56607 13.0905 4.02881 15.917 4.02881H36.8559ZM16.8841 21.856H19.9214C20.6528 21.856 21.1364 21.36 21.1364 20.6659V18.3723C21.1364 17.6781 20.6528 17.1823 19.9214 17.1823H16.8841C16.1527 17.1823 15.6566 17.6781 15.6566 18.3723V20.6659C15.6566 21.36 16.1527 21.856 16.8841 21.856ZM15.917 25.9719C13.0905 25.9719 11.5408 24.4347 11.5408 21.6204V12.4836H41.2322V21.6204C41.2322 24.4222 39.6825 25.9719 36.8559 25.9719H15.917Z" fill="#A6A4FF"/>
</svg>
